<svg width="49" height="49" viewBox="0 0 49 49" fill="none" xmlns="http://www.w3.org/2000/svg">
<path d="M43.0589 14.9654C43.6512 14.3748 44.1211 13.6732 44.4417 12.9007C44.7623 12.1282 44.9273 11.3 44.9273 10.4636C44.9273 9.62716 44.7623 8.79897 44.4417 8.02646C44.1211 7.25395 43.6512 6.55229 43.0589 5.96169C42.4683 5.36943 41.7667 4.89954 40.9941 4.57892C40.2216 4.2583 39.3934 4.09327 38.557 4.09327C37.7206 4.09327 36.8925 4.2583 36.1199 4.57892C35.3474 4.89954 34.6458 5.36943 34.0552 5.96169L15.9252 24.0509C14.4756 24.1734 13.0464 24.6021 11.8214 25.3575C9.43267 26.8275 8.126 29.2163 8.126 32.0746C8.126 32.6871 8.16683 33.2792 8.20767 33.8304C8.371 35.9334 8.43225 36.7296 5.20642 38.3425C4.55308 38.6692 4.12433 39.3021 4.0835 40.0167C4.04267 40.7313 4.36933 41.4254 4.96142 41.8338C7.00308 43.2425 10.5964 44.8759 14.3939 44.8759C17.1502 44.8759 19.9881 44.0184 22.3973 41.6092C24.6839 39.3225 25.8885 35.7904 25.5618 32.4421L43.0385 14.9654H43.0589ZM36.9339 8.84044C37.8322 7.9421 39.2818 7.9421 40.1802 8.84044C41.0785 9.73877 41.0785 11.1884 40.1802 12.0663L24.1327 28.1138C23.2968 26.8056 22.1361 25.7364 20.7639 25.0104L36.9339 8.84044ZM19.5185 38.7304C16.5785 41.6704 12.7606 40.9763 10.1677 39.9759C12.3931 37.975 12.4747 35.9129 12.291 33.5242C12.2423 33.0424 12.2151 32.5588 12.2093 32.0746C12.2093 30.6454 12.8014 29.5634 13.9652 28.8284C15.3535 27.9709 17.3543 27.8279 18.6814 28.5017C20.0085 29.155 20.7027 30.1554 21.0906 31.115L20.9885 31.2171L21.1927 31.4213C21.2948 31.7479 21.3764 32.0746 21.4377 32.3809C21.8052 34.6063 20.9885 37.2196 19.4777 38.7304H19.5185ZM4.73683 13.2504L9.24892 15.2513L11.2497 19.7634C11.3336 19.9592 11.4731 20.1262 11.6509 20.2435C11.8287 20.3608 12.0371 20.4234 12.2502 20.4234C12.4632 20.4234 12.6716 20.3608 12.8494 20.2435C13.0273 20.1262 13.1667 19.9592 13.2506 19.7634L15.2514 15.2513L19.7635 13.2504C19.9594 13.1666 20.1263 13.0271 20.2436 12.8493C20.361 12.6714 20.4235 12.4631 20.4235 12.25C20.4235 12.037 20.361 11.8286 20.2436 11.6508C20.1263 11.4729 19.9594 11.3334 19.7635 11.2496L15.2514 9.24877L13.2506 4.73669C13.1678 4.54477 13.0312 4.38094 12.8573 4.265C12.6833 4.14906 12.4796 4.08597 12.2706 4.08335C11.8418 4.04252 11.4539 4.32835 11.2702 4.71627L9.24892 9.08544L4.696 11.27C4.50983 11.3622 4.35376 11.5055 4.24603 11.6832C4.13831 11.8608 4.08337 12.0655 4.08766 12.2732C4.09194 12.4809 4.15526 12.6831 4.27022 12.8562C4.38518 13.0292 4.54702 13.166 4.73683 13.2504ZM44.4268 38.0363L41.0377 36.5254L39.5268 33.1363C39.4622 32.9942 39.3591 32.873 39.2292 32.7864C39.0993 32.6998 38.9478 32.6513 38.7918 32.6463C38.4652 32.6259 38.1793 32.83 38.0364 33.1159L36.5256 36.3825L33.116 38.0159C32.8302 38.1588 32.6464 38.4446 32.6464 38.7713C32.6464 39.0979 32.8506 39.3838 33.1364 39.5063L36.5256 41.0171L38.0364 44.4063C38.1008 44.553 38.2065 44.6779 38.3406 44.7656C38.4748 44.8532 38.6316 44.8999 38.7918 44.8999C38.9521 44.8999 39.1089 44.8532 39.243 44.7656C39.3772 44.6779 39.4829 44.553 39.5472 44.4063L41.0581 41.0171L44.4473 39.5063C44.594 39.4419 44.7189 39.3362 44.8065 39.2021C44.8942 39.0679 44.9409 38.9111 44.9409 38.7509C44.9409 38.5906 44.8942 38.4338 44.8065 38.2997C44.7189 38.1655 44.594 38.0598 44.4473 37.9954L44.4268 38.0363Z" fill="#F6A39C"/>
</svg>
